<svg width="28" height="29" viewBox="0 0 28 29" fill="none" xmlns="http://www.w3.org/2000/svg">
<rect x="0.458496" y="0.6329" width="27.5415" height="27.5415" rx="6" fill="url(#paint0_linear_4019_786)"/>
<path d="M15.09 6.65761C15.09 6.18228 14.7046 5.79694 14.2293 5.79694C13.7539 5.79694 13.3686 6.18228 13.3686 6.65761V13.543H6.48323C6.0079 13.543 5.62256 13.9283 5.62256 14.4037C5.62256 14.879 6.0079 15.2643 6.48323 15.2643H13.3686V22.1497C13.3686 22.6251 13.7539 23.0104 14.2293 23.0104C14.7046 23.0104 15.09 22.6251 15.09 22.1497V15.2643H21.9753C22.4507 15.2643 22.836 14.879 22.836 14.4037C22.836 13.9283 22.4507 13.543 21.9753 13.543H15.09V6.65761Z" fill="white"/>
<defs>
<linearGradient id="paint0_linear_4019_786" x1="1.74951" y1="1.92391" x2="25.8483" y2="26.8834" gradientUnits="userSpaceOnUse">
<stop stop-color="#5D4FBE" stop-opacity="0.15"/>
<stop offset="1" stop-color="#5D4FBE"/>
</linearGradient>
</defs>
</svg>
