<svg width="41" height="41" viewBox="0 0 41 41" fill="none" xmlns="http://www.w3.org/2000/svg">
<path opacity="0.5" d="M17.2221 4.11108C15.6381 4.11108 14.354 5.39515 14.354 6.97914C14.354 8.56313 15.6381 9.84719 17.2221 9.84719H23.7776C25.3616 9.84719 26.6457 8.56313 26.6457 6.97914C26.6457 5.39515 25.3616 4.11108 23.7776 4.11108H17.2221Z" fill="#5D4FBE"/>
<path opacity="0.5" d="M7.16464 27.3918C5.75856 21.7675 5.05553 18.9553 6.53189 17.0645C8.00825 15.1736 10.907 15.1736 16.7044 15.1736H24.2935C30.0909 15.1736 32.9896 15.1736 34.4661 17.0645C35.9424 18.9553 35.2394 21.7675 33.8333 27.3918C32.939 30.969 32.4919 32.7575 31.1582 33.7989C29.8245 34.8402 27.9809 34.8403 24.2935 34.8403H16.7044C13.0171 34.8403 11.1735 34.8402 9.83979 33.7989C8.50609 32.7575 8.05894 30.969 7.16464 27.3918Z" fill="#5D4FBE"/>
<path d="M26.3679 8.21205C26.5461 7.83854 26.6457 7.42048 26.6457 6.97911C26.6457 6.53981 26.5469 6.12356 26.3704 5.7514C27.4906 5.75953 28.3638 5.81096 29.1431 6.11556C30.0743 6.47951 30.8842 7.09819 31.4803 7.90086C32.0817 8.7106 32.364 9.74849 32.7525 11.177L32.8286 11.4562L33.6688 16.3122C32.999 15.8502 32.1353 15.5756 31.0183 15.4125L30.4261 11.9904C29.961 10.2865 29.7922 9.751 29.5067 9.36655C29.1858 8.93434 28.7496 8.6012 28.2482 8.40524C27.888 8.26444 27.4527 8.22301 26.3679 8.21205Z" fill="#5D4FBE"/>
<path d="M14.6293 5.7514C14.4527 6.12356 14.354 6.53981 14.354 6.97911C14.354 7.42048 14.4536 7.83856 14.6318 8.21206C13.5471 8.22303 13.1118 8.26444 12.7516 8.40524C12.2502 8.6012 11.814 8.93434 11.493 9.36655C11.2075 9.751 11.0387 10.2865 10.5736 11.9904L9.98151 15.4123C8.86455 15.5754 8.00085 15.8498 7.33105 16.3115L8.17121 11.4562L8.24724 11.177C8.63579 9.74851 8.91809 8.7106 9.51945 7.90086C10.1155 7.09819 10.9255 6.47951 11.8567 6.11556C12.636 5.81098 13.5091 5.75955 14.6293 5.7514Z" fill="#5D4FBE"/>
<path d="M15.1734 21.7292C15.1734 21.0503 14.6231 20.5 13.9443 20.5C13.2654 20.5 12.7151 21.0503 12.7151 21.7292V28.2847C12.7151 28.9635 13.2654 29.5139 13.9443 29.5139C14.6231 29.5139 15.1734 28.9635 15.1734 28.2847V21.7292Z" fill="#5D4FBE"/>
<path d="M27.0553 20.5C27.7342 20.5 28.2845 21.0503 28.2845 21.7292V28.2847C28.2845 28.9635 27.7342 29.5139 27.0553 29.5139C26.3765 29.5139 25.8262 28.9635 25.8262 28.2847V21.7292C25.8262 21.0503 26.3765 20.5 27.0553 20.5Z" fill="#5D4FBE"/>
<path d="M21.7291 21.7292C21.7291 21.0503 21.1787 20.5 20.4999 20.5C19.8211 20.5 19.2708 21.0503 19.2708 21.7292V28.2847C19.2708 28.9635 19.8211 29.5139 20.4999 29.5139C21.1787 29.5139 21.7291 28.9635 21.7291 28.2847V21.7292Z" fill="#5D4FBE"/>
</svg>
