<svg width="26" height="26" viewBox="0 0 26 26" fill="none" xmlns="http://www.w3.org/2000/svg">
<path fill-rule="evenodd" clip-rule="evenodd" d="M5.41675 3.25H20.5834L9.55034 14.2831C9.37734 13.833 9.09999 13.4465 8.70738 13.1057C8.46056 12.8914 8.11583 12.6973 7.42637 12.3093L4.2706 10.5328C3.24301 9.9543 2.72921 9.66507 2.44798 9.19904C2.16675 8.73301 2.16675 8.17085 2.16675 7.04652V6.29921C2.16675 4.8618 2.16675 4.1431 2.6427 3.69655C3.11865 3.25 3.88469 3.25 5.41675 3.25Z" fill="#5D4FBE"/>
<path opacity="0.5" d="M23.8331 7.04652V6.29921C23.8331 4.8618 23.8331 4.1431 23.3572 3.69655C22.8812 3.25 22.1152 3.25 20.5831 3.25L9.55005 14.2831C9.60354 14.4223 9.64706 14.5676 9.68094 14.7195C9.74979 15.0282 9.74979 15.3896 9.74979 16.1123V19.0043C9.74979 19.9897 9.74979 20.4823 10.0227 20.8664C10.2956 21.2504 10.7803 21.4399 11.7498 21.819C13.785 22.6146 14.8026 23.0124 15.5262 22.5598C16.2498 22.1071 16.2498 21.0729 16.2498 19.0043V16.1123C16.2498 15.3896 16.2498 15.0282 16.3187 14.7195C16.462 14.0763 16.7784 13.552 17.2925 13.1057C17.5393 12.8914 17.884 12.6973 18.5735 12.3093L21.7293 10.5328C22.7568 9.9543 23.2706 9.66507 23.5519 9.19904C23.8331 8.73301 23.8331 8.17085 23.8331 7.04652Z" fill="#5D4FBE"/>
</svg>
