<svg width="24" height="23" viewBox="0 0 24 23" fill="none" xmlns="http://www.w3.org/2000/svg">
<path fill-rule="evenodd" clip-rule="evenodd" d="M21 10.6365L12 21.375L3 10.5922C1.92375 9.09674 1.5 8.08649 1.5 6.70349C1.5 4.12424 3.34125 1.803 6 1.78125C8.187 1.76325 10.6665 3.99673 12 5.68048C13.2983 4.05598 15.813 1.78125 18 1.78125C20.5882 1.78125 22.5 4.12424 22.5 6.70349C22.5 8.08649 22.1647 9.17175 21 10.6365ZM18 0.375C15.5002 0.375 13.6088 1.842 12 3.375C10.4677 1.74825 8.49975 0.375 6 0.375C2.4795 0.375 0 3.40199 0 6.70349C0 8.47424 0.725251 9.74924 1.5195 10.9477L10.8442 22.1272C11.8905 23.235 12.0885 23.235 13.1348 22.1272L22.4805 10.9477C23.415 9.74924 24 8.47424 24 6.70349C24 3.40199 21.5205 0.375 18 0.375Z" fill="#5D4FBE"/>
</svg>
